# xmcd
#
# Track frame offsets:
#	150
#	15435
#	30632
#	47880
#	64998
#	85030
#	104023
#	121540
#	136466
#	152709
#	172510
#	193918
#	213161
#	234704
#	256409
#
# Disc length: 3601 seconds
#
# Revision: 1
# Processed by: cddbd v1.5PL3 Copyright (c) Steve Scherf et al.
# Submitted via: audiograbber 1.83.01
#
DISCID=c30e0f0f
DTITLE=Edge of the 80s - Heart of the Eighties CD 2
DYEAR=2003
DGENRE=New Age
TTITLE0=Godley and Creme - Cry
TTITLE1=Thompson Twins - Don't Mess with Doctor Dream
TTITLE2=Animotion - Obsession
TTITLE3=The Machinations - No Say In It
TTITLE4=Hazell Dean - Searchin' (I gotta find a Man)
TTITLE5=Bronski Beat - Hit That Perfect Beat
TTITLE6=Culture Club - The War Song
TTITLE7=Cameo - Word Up
TTITLE8=King - Love And Pride
TTITLE9=Rockwell - Somebody's Watchin Me
TTITLE10=Mi-Sex - Blue Day
TTITLE11=Sly Fox - Lets Go All The Way
TTITLE12=Tears for Fears - Head Over Heels
TTITLE13=The Stranglers - Skin Deep
TTITLE14=Art Of Noise - Peter Gunn
EXTD=YEAR: 2003
EXTT0=
EXTT1=
EXTT2=
EXTT3=
EXTT4=
EXTT5=
EXTT6=
EXTT7=
EXTT8=
EXTT9=
EXTT10=
EXTT11=
EXTT12=
EXTT13=
EXTT14=
PLAYORDER=
